<svg width="610" height="610" viewBox="0 0 610 610" fill="none" xmlns="http://www.w3.org/2000/svg">
<path d="M503.909 391.059C501.723 391.059 499.626 390.191 498.08 388.645C496.534 387.099 495.666 385.002 495.666 382.816V358.828C495.666 356.642 496.534 354.545 498.08 353C499.626 351.454 501.723 350.585 503.909 350.585C506.095 350.585 508.192 351.454 509.738 353C511.284 354.545 512.152 356.642 512.152 358.828V382.816C512.152 385.002 511.284 387.099 509.738 388.645C508.192 390.191 506.095 391.059 503.909 391.059Z" fill="#F5F5F5"/>
<path d="M503.91 512.153H106.091C103.905 512.153 101.808 511.284 100.262 509.738C98.7161 508.192 97.8477 506.096 97.8477 503.909V106.091C97.8477 103.904 98.7161 101.808 100.262 100.262C101.808 98.7158 103.905 97.8473 106.091 97.8473H503.91C506.096 97.8473 508.193 98.7158 509.739 100.262C511.285 101.808 512.153 103.904 512.153 106.091V218.941C512.153 221.127 511.285 223.223 509.739 224.769C508.193 226.315 506.096 227.184 503.91 227.184C501.724 227.184 499.627 226.315 498.081 224.769C496.535 223.223 495.667 221.127 495.667 218.941V114.334H114.334V495.666H495.667V440.519C495.667 438.333 496.535 436.236 498.081 434.69C499.627 433.144 501.724 432.276 503.91 432.276C506.096 432.276 508.193 433.144 509.739 434.69C511.285 436.236 512.153 438.333 512.153 440.519V503.909C512.153 506.096 511.285 508.192 509.739 509.738C508.193 511.284 506.096 512.153 503.91 512.153Z" fill="#F5F5F5"/>
<path d="M503.909 309.369C501.723 309.369 499.626 308.5 498.08 306.955C496.534 305.409 495.666 303.312 495.666 301.126V276.643C495.666 274.457 496.534 272.36 498.08 270.814C499.626 269.269 501.723 268.4 503.909 268.4C506.095 268.4 508.192 269.269 509.738 270.814C511.284 272.36 512.152 274.457 512.152 276.643V301.126C512.152 303.312 511.284 305.409 509.738 306.955C508.192 308.5 506.095 309.369 503.909 309.369Z" fill="#F5F5F5"/>
<path d="M106.099 69.136C103.912 69.136 101.816 68.2676 100.27 66.7216C98.7239 65.1757 97.8555 63.079 97.8555 60.8928V24.7297C97.8555 22.5434 98.7239 20.4467 100.27 18.9008C101.816 17.3549 103.912 16.4865 106.099 16.4865C108.285 16.4865 110.382 17.3549 111.928 18.9008C113.473 20.4467 114.342 22.5434 114.342 24.7297V60.8928C114.342 63.079 113.473 65.1757 111.928 66.7216C110.382 68.2676 108.285 69.136 106.099 69.136Z" fill="#F5F5F5"/>
<path d="M60.8927 114.342H24.7296C22.5433 114.342 20.4466 113.474 18.9007 111.928C17.3548 110.382 16.4863 108.285 16.4863 106.099C16.4863 103.913 17.3548 101.816 18.9007 100.27C20.4466 98.724 22.5433 97.8555 24.7296 97.8555H60.8927C63.0789 97.8555 65.1756 98.724 66.7215 100.27C68.2674 101.816 69.1359 103.913 69.1359 106.099C69.1359 108.285 68.2674 110.382 66.7215 111.928C65.1756 113.474 63.0789 114.342 60.8927 114.342Z" fill="#F5F5F5"/>
</svg>
