<svg width="610" height="610" viewBox="0 0 610 610" fill="none" xmlns="http://www.w3.org/2000/svg">
<path d="M503.909 391.06C501.723 391.06 499.626 390.191 498.08 388.645C496.534 387.099 495.666 385.003 495.666 382.816V358.828C495.666 356.642 496.534 354.546 498.08 353C499.626 351.454 501.723 350.585 503.909 350.585C506.095 350.585 508.192 351.454 509.738 353C511.284 354.546 512.152 356.642 512.152 358.828V382.816C512.152 385.003 511.284 387.099 509.738 388.645C508.192 390.191 506.095 391.06 503.909 391.06Z" fill="#F5F5F5"/>
<path d="M503.91 512.153H106.091C103.905 512.153 101.808 511.284 100.262 509.738C98.7161 508.192 97.8477 506.096 97.8477 503.909V106.091C97.8477 103.904 98.7161 101.808 100.262 100.262C101.808 98.7158 103.905 97.8473 106.091 97.8473H503.91C506.096 97.8473 508.193 98.7158 509.739 100.262C511.285 101.808 512.153 103.904 512.153 106.091V218.941C512.153 221.127 511.285 223.223 509.739 224.769C508.193 226.315 506.096 227.184 503.91 227.184C501.724 227.184 499.627 226.315 498.081 224.769C496.535 223.223 495.667 221.127 495.667 218.941V114.334H114.334V495.666H495.667V440.519C495.667 438.333 496.535 436.236 498.081 434.69C499.627 433.144 501.724 432.276 503.91 432.276C506.096 432.276 508.193 433.144 509.739 434.69C511.285 436.236 512.153 438.333 512.153 440.519V503.909C512.153 506.096 511.285 508.192 509.739 509.738C508.193 511.284 506.096 512.153 503.91 512.153Z" fill="#F5F5F5"/>
<path d="M503.909 309.369C501.723 309.369 499.626 308.5 498.08 306.955C496.534 305.409 495.666 303.312 495.666 301.126V276.643C495.666 274.457 496.534 272.36 498.08 270.814C499.626 269.269 501.723 268.4 503.909 268.4C506.095 268.4 508.192 269.269 509.738 270.814C511.284 272.36 512.152 274.457 512.152 276.643V301.126C512.152 303.312 511.284 305.409 509.738 306.955C508.192 308.5 506.095 309.369 503.909 309.369Z" fill="#F5F5F5"/>
</svg>
