<svg width="40" height="40" viewBox="0 0 40 40" fill="none" xmlns="http://www.w3.org/2000/svg">
<g clip-path="url(#clip0)">
<path d="M4.00003 23.9999C6.20918 23.9999 8.00006 22.209 8.00006 19.9999C8.00006 17.7907 6.20918 15.9998 4.00003 15.9998C1.79087 15.9998 0 17.7907 0 19.9999C0 22.209 1.79087 23.9999 4.00003 23.9999Z" fill="black"/>
<path d="M20 23.9999C22.2092 23.9999 24.0001 22.209 24.0001 19.9999C24.0001 17.7907 22.2092 15.9998 20 15.9998C17.7909 15.9998 16 17.7907 16 19.9999C16 22.209 17.7909 23.9999 20 23.9999Z" fill="black"/>
<path d="M36 23.9999C38.2092 23.9999 40.0001 22.209 40.0001 19.9999C40.0001 17.7907 38.2092 15.9998 36 15.9998C33.7909 15.9998 32 17.7907 32 19.9999C32 22.209 33.7909 23.9999 36 23.9999Z" fill="black"/>
</g>
<defs>
<clipPath id="clip0">
<rect width="40" height="40" fill="white"/>
</clipPath>
</defs>
</svg>
